<svg width="600" height="443" viewBox="0 0 600 443" fill="none" xmlns="http://www.w3.org/2000/svg">
<g clip-path="url(#clip0_326_551)">
<path d="M18.2563 390.677C2.97331 377.519 -4.9067 357.807 3.30385 341.133C15.2564 357.912 34.9334 371.126 57.7469 377.694C66.6325 380.253 76.8507 382.363 81.6837 388.816C84.691 392.832 84.9101 397.861 83.5552 402.407C82.2001 406.954 79.4102 411.136 76.648 415.261L76.6323 416.428C55.0056 411.396 33.5393 403.835 18.2563 390.677Z" fill="white"/>
<path d="M3.76342 341.222C6.34019 355.742 14.7722 369.703 27.6641 380.227C30.4625 382.608 33.638 384.588 37.0832 386.101C40.6288 387.537 44.494 388.19 48.3666 388.008C52.0145 387.902 55.7305 387.458 59.3474 388.058C61.1213 388.343 62.814 388.952 64.3244 389.85C65.8349 390.747 67.1319 391.914 68.138 393.28C70.5359 396.505 71.3322 400.223 71.9518 403.88C72.6399 407.94 73.2735 412.167 76.1967 415.66C76.5509 416.083 75.7036 416.495 75.35 416.072C70.2642 409.995 71.9658 402.229 68.5342 395.675C66.933 392.617 64.1622 389.924 60.02 389C56.3978 388.193 52.5654 388.648 48.873 388.781C45.0887 389.001 41.2968 388.477 37.7528 387.243C34.2235 385.877 30.9586 383.997 28.0843 381.679C21.7909 376.76 16.4134 370.939 12.1619 364.442C7.44374 357.326 4.25603 349.45 2.77029 341.238C2.68127 340.737 3.67499 340.723 3.76342 341.222Z" fill="white"/>
<path d="M23.2466 376.982C20.622 378.47 17.5555 379.173 14.4738 378.993C11.392 378.813 8.44824 377.759 6.05198 375.978C5.59815 375.62 6.27594 375.043 6.73038 375.401C8.95829 377.063 11.6997 378.044 14.5692 378.207C17.4387 378.37 20.2918 377.706 22.7274 376.309C23.2417 376.008 23.758 376.682 23.2466 376.982Z" fill="white"/>
<path d="M46.5258 388.255C47.0363 385.719 46.9537 383.112 46.2834 380.607C45.6131 378.102 44.3703 375.755 42.6368 373.721C42.2845 373.296 43.1316 372.884 43.4834 373.308C45.2825 375.428 46.5698 377.873 47.2607 380.481C47.9516 383.089 48.0303 385.801 47.4916 388.439C47.3855 388.941 46.4203 388.754 46.5258 388.255Z" fill="white"/>
<path d="M8.70229 357.113C9.78583 356.76 10.7527 356.159 11.5112 355.368C12.2697 354.577 12.7946 353.622 13.0362 352.594C13.1342 352.091 14.0994 352.278 14.0021 352.778C13.7296 353.913 13.1488 354.966 12.3133 355.842C11.4777 356.717 10.4144 357.386 9.22153 357.786C9.10834 357.838 8.97927 357.853 8.85527 357.83C8.73128 357.806 8.61967 357.745 8.53859 357.656C8.50539 357.612 8.48315 357.561 8.47344 357.509C8.46373 357.456 8.4668 357.401 8.4824 357.35C8.498 357.298 8.52572 357.25 8.56371 357.209C8.6017 357.168 8.649 357.136 8.70229 357.113Z" fill="white"/>
<path d="M75.7756 322.175C75.7257 322.49 75.6757 322.805 75.6319 323.125C74.9882 327.358 74.7786 331.638 75.0058 335.907C75.0168 336.238 75.0342 336.572 75.0571 336.901C75.7765 347.288 78.8719 357.422 84.1432 366.646C86.2876 370.412 88.7641 374.012 91.5479 377.41C95.4265 382.152 100.107 387.048 101.739 392.375C101.917 392.927 102.052 393.489 102.143 394.059L78.4244 416.352C78.3385 416.381 78.2587 416.415 78.1725 416.444L77.2767 417.369C77.1163 417.2 76.9545 417.022 76.7941 416.853C76.7006 416.755 76.6123 416.652 76.5188 416.555C76.4581 416.488 76.3976 416.421 76.338 416.363C76.3177 416.341 76.2977 416.319 76.2838 416.301C76.2242 416.243 76.1765 416.185 76.1233 416.132C75.2156 415.138 74.315 414.138 73.4215 413.131C73.4151 413.127 73.4152 413.127 73.414 413.118C66.6315 405.431 60.597 397.227 56.3216 388.556C56.1931 388.295 56.0579 388.03 55.9402 387.759C54.0514 383.872 52.5564 379.835 51.4738 375.698C50.8967 373.452 50.4621 371.177 50.1722 368.885C49.4405 362.968 49.8847 356.98 51.4835 351.208C54.6771 339.643 62.4901 329.019 74.8271 322.654C75.1428 322.491 75.4535 322.333 75.7756 322.175Z" fill="white"/>
<path d="M76.0784 322.464C67.1327 335.29 63.2864 350.471 65.6051 365.041C66.0248 368.248 67.0641 371.362 68.6746 374.237C70.4673 377.125 73.081 379.517 76.2389 381.157C79.2321 382.817 82.5357 384.24 84.9688 386.45C86.1656 387.525 87.0668 388.845 87.599 390.301C88.1311 391.756 88.2791 393.306 88.0306 394.824C87.5011 398.547 85.3198 401.896 83.0434 405.112C80.5159 408.683 77.8194 412.361 77.5066 416.548C77.4687 417.055 76.4801 416.979 76.518 416.473C77.0622 409.187 84.306 403.8 86.5321 396.926C87.5709 393.718 87.3994 390.243 84.7918 387.524C82.5116 385.146 79.1064 383.677 76.0574 382.017C72.9405 380.443 70.2922 378.195 68.3439 375.469C66.5569 372.677 65.368 369.6 64.8407 366.401C63.5454 359.314 63.6633 352.071 65.1885 345.022C66.9233 336.833 70.3456 329.021 75.2728 322.002C75.5818 321.559 76.3854 322.024 76.0784 322.464V322.464Z" fill="white"/>
<path d="M64.5369 360.337C58.0408 360.283 52.4979 356.41 51.5692 351.309C51.4777 350.807 52.4562 350.67 52.5478 351.173C53.4178 355.952 58.5596 359.501 64.6321 359.551C65.2712 359.556 65.1723 360.342 64.5369 360.337Z" fill="white"/>
<path d="M74.5816 380.474C76.8285 378.837 78.6882 376.799 80.0477 374.484C81.4072 372.169 82.2382 369.626 82.4902 367.008C82.5304 366.501 83.519 366.577 83.4789 367.084C83.2099 369.808 82.3386 372.453 80.9177 374.86C79.4969 377.266 77.5562 379.383 75.2134 381.083C74.7485 381.433 74.1192 380.822 74.5816 380.474Z" fill="white"/>
<path d="M67.9798 337.515C69.1803 337.738 70.4197 337.716 71.6098 337.45C72.7999 337.185 73.9114 336.683 74.865 335.98C75.3241 335.625 75.9529 336.236 75.4968 336.588C74.4395 337.362 73.2111 337.915 71.8967 338.211C70.5823 338.506 69.2133 338.537 67.8846 338.301C67.6209 338.254 67.4129 338.102 67.4379 337.87C67.4616 337.759 67.531 337.66 67.6317 337.594C67.7325 337.528 67.857 337.5 67.9798 337.515V337.515Z" fill="white"/>
<path d="M111.735 153.275C100.505 153.275 91.4007 144.949 91.4007 134.678C91.4007 124.407 100.505 116.081 111.735 116.081C122.965 116.081 132.069 124.407 132.069 134.678C132.069 144.949 122.965 153.275 111.735 153.275Z" fill="#9E616A"/>
<path d="M22.6311 220.596C25.489 214.528 29.4135 208.929 34.2489 204.021C30.1543 209.989 27.8142 216.823 27.4553 223.861C28.9377 224.708 30.4888 225.45 32.095 226.081C36.922 227.932 42.0685 228.99 47.2976 229.204C50.116 220.617 54.9806 212.707 61.5413 206.044C56.8132 212.94 54.4355 220.967 54.7109 229.103C60.5433 228.642 66.2898 227.516 71.8166 225.75C80.115 223.139 88.1699 219.24 93.9087 213.175C100.12 206.611 103.181 197.949 104.169 189.314C105.158 180.686 104.228 171.976 103.291 163.341C102.849 159.226 106.596 154.49 106.153 150.375H105.858C103.889 147.906 101.883 145.376 100.916 142.448C99.9574 139.527 100.208 136.08 102.414 133.779C103.649 132.577 105.209 131.693 106.935 131.216C107.098 131.027 107.275 130.845 107.459 130.662C110.799 127.418 114.73 124.729 119.077 122.715C115.942 124.881 113.847 127.33 112.873 129.86C115.588 129.313 118.302 128.769 121.017 128.227C121.924 127.347 122.879 126.509 123.879 125.717C125.036 124.86 126.262 124.082 127.545 123.39C126.145 124.516 125.06 125.931 124.38 127.519C127.869 126.716 131.359 125.508 133.173 122.763C136.183 118.222 132.605 112.097 127.611 109.385C123.979 107.508 119.793 106.723 115.646 107.141C111.499 107.558 107.6 109.158 104.501 111.712C97.2798 106.848 86.9971 106.929 78.9643 110.565C73.6612 113.073 69.0929 116.708 65.6426 121.164C67.6441 120.929 69.6588 120.8 71.6765 120.779C68.8362 121.159 66.1316 122.139 63.7764 123.64C62.7346 125.119 61.7792 126.648 60.9144 128.22C60.3465 129.252 59.8105 130.298 59.3064 131.357C56.2157 137.793 54.202 144.647 52.1144 151.42C49.6803 159.314 47.069 167.261 42.5104 174.324C35.521 185.064 24.4952 193.11 11.4929 196.957C10.4086 205.883 15.1736 214.612 22.6311 220.596Z" fill="#2F2E41"/>
<path d="M69.8189 422.093L77.1997 425.236L93.9663 400.693L83.0721 396.055L69.8189 422.093Z" fill="#9E616A"/>
<path d="M59.9695 432.131L65.2628 434.384L68.5341 430.216L68.6275 435.817L82.6665 441.794C83.3395 442.081 84.095 442.163 84.8227 442.029C85.5504 441.895 86.2122 441.552 86.7116 441.05C87.2109 440.547 87.5216 439.912 87.5983 439.237C87.675 438.562 87.5137 437.882 87.138 437.296L79.5313 425.442L81.8832 420.821L69.7634 416.444L59.9695 432.131Z" fill="#2F2E41"/>
<path d="M143.918 429.19H152.059L155.934 400.469H143.918V429.19Z" fill="#9E616A"/>
<path d="M139.62 442.092H145.459L146.501 437.05L149.171 442.092H164.656C165.399 442.092 166.122 441.875 166.719 441.472C167.317 441.07 167.759 440.503 167.98 439.855C168.201 439.207 168.189 438.511 167.947 437.87C167.705 437.228 167.245 436.674 166.634 436.288L154.268 428.477V423.38L141.26 424.09L139.62 442.092Z" fill="#2F2E41"/>
<path d="M106.311 211.564L113.057 230.388L115.287 245.647L151.12 235.529L147.805 201.48L140.352 194.736L106.311 211.564Z" fill="#9E616A"/>
<path d="M449.358 35.5347C447.359 32.7874 448.542 28.8546 452 26.7506C455.458 24.6466 459.881 25.1682 461.88 27.9156C463.878 30.663 462.695 34.5957 459.237 36.6997C455.78 38.8037 451.356 38.2821 449.358 35.5347Z" fill="#FD6584"/>
<path d="M376.677 264.445C374.679 261.697 375.862 257.764 379.32 255.66C382.777 253.556 387.201 254.078 389.199 256.825C391.198 259.573 390.015 263.506 386.557 265.61C383.099 267.713 378.676 267.192 376.677 264.445Z" fill="white"/>
<path d="M580.265 68.1298C578.266 65.3824 579.449 61.4497 582.907 59.3457C586.365 57.2417 590.788 57.7633 592.786 60.5107C594.785 63.258 593.602 67.1908 590.144 69.2948C586.686 71.3988 582.263 70.8772 580.265 68.1298Z" fill="white"/>
<path d="M323.666 230.992L569.478 230.992C577.57 230.984 585.328 228.04 591.05 222.807C596.772 217.574 599.991 210.478 600 203.078V106.442C599.991 99.0413 596.772 91.946 591.05 86.7128C585.328 81.4797 577.57 78.536 569.478 78.5277C491.041 58.6535 408.776 60.5153 323.666 78.5277C315.574 78.536 307.816 81.4797 302.094 86.7128C296.372 91.946 293.153 99.0413 293.144 106.442L293.144 203.078C293.153 210.478 296.372 217.574 302.094 222.807C307.816 228.04 315.574 230.984 323.666 230.992Z" fill="white"/>
<path d="M573.814 206.368C573.911 206.368 574.007 206.351 574.096 206.317C574.186 206.283 574.267 206.233 574.336 206.171C574.404 206.108 574.458 206.034 574.495 205.952C574.533 205.87 574.552 205.782 574.552 205.694V103.826C574.552 103.647 574.474 103.475 574.336 103.349C574.197 103.222 574.01 103.151 573.814 103.151C573.618 103.151 573.431 103.222 573.292 103.349C573.154 103.475 573.076 103.647 573.076 103.826V205.694C573.076 205.782 573.095 205.87 573.132 205.952C573.169 206.034 573.224 206.108 573.292 206.171C573.361 206.233 573.442 206.283 573.532 206.317C573.621 206.351 573.717 206.368 573.814 206.368Z" fill="white"/>
<path d="M317.855 206.368C317.758 206.368 317.662 206.351 317.572 206.317C317.483 206.283 317.402 206.233 317.333 206.171C317.265 206.108 317.21 206.034 317.173 205.952C317.136 205.87 317.117 205.782 317.117 205.694V103.826C317.117 103.647 317.195 103.475 317.333 103.349C317.471 103.222 317.659 103.151 317.855 103.151C318.05 103.151 318.238 103.222 318.376 103.349C318.515 103.475 318.592 103.647 318.592 103.826L318.592 205.694C318.592 205.782 318.573 205.87 318.536 205.952C318.499 206.034 318.445 206.108 318.376 206.171C318.308 206.233 318.226 206.283 318.137 206.317C318.047 206.351 317.952 206.368 317.855 206.368Z" fill="white"/>
<path d="M366.539 125.414H366.541C366.737 125.413 366.924 125.342 367.062 125.215C367.2 125.088 367.277 124.916 367.276 124.737L366.907 21.5199C366.907 21.3414 366.829 21.1704 366.69 21.0444C366.552 20.9184 366.365 20.8476 366.17 20.8476H366.167C365.972 20.8482 365.784 20.9199 365.646 21.0468C365.509 21.1738 365.431 21.3456 365.432 21.5245L365.801 124.742C365.802 124.92 365.88 125.091 366.018 125.217C366.156 125.343 366.343 125.414 366.539 125.414Z" fill="#2F2E41"/>
<path d="M460.956 273.156H460.958C461.154 273.155 461.341 273.084 461.479 272.957C461.617 272.83 461.694 272.658 461.693 272.479L461.325 171.96C461.324 171.782 461.246 171.611 461.108 171.485C460.969 171.359 460.782 171.288 460.587 171.288H460.585C460.389 171.289 460.202 171.36 460.064 171.487C459.926 171.614 459.849 171.786 459.849 171.965L460.218 272.483C460.219 272.662 460.297 272.833 460.435 272.959C460.573 273.085 460.761 273.156 460.956 273.156Z" fill="#2F2E41"/>
<path d="M531.031 144.303H531.034C531.229 144.303 531.417 144.231 531.555 144.104C531.692 143.977 531.769 143.805 531.769 143.626L531.4 41.7586C531.399 41.5801 531.321 41.4091 531.183 41.2831C531.045 41.1571 530.858 41.0863 530.662 41.0862H530.66C530.464 41.0869 530.277 41.1585 530.139 41.2855C530.001 41.4124 529.924 41.5842 529.925 41.7632L530.294 143.631C530.294 143.809 530.372 143.98 530.511 144.106C530.649 144.232 530.836 144.303 531.031 144.303Z" fill="#2F2E41"/>
<path d="M561.489 171.422C560.068 164.408 551.349 161.174 544.283 161.723C534.186 162.508 525.76 168.588 516.362 171.454C511.821 172.839 506.935 173.599 502.177 172.802C498.425 172.096 494.947 170.49 492.098 168.149C486.634 163.878 482.94 158.053 477.472 153.787C474.547 151.378 470.849 149.902 466.93 149.577C462.105 149.284 457.381 150.779 453.152 152.784C444.75 156.765 437.873 163.101 428.925 166.174C424.816 167.623 420.359 168.044 416.014 167.394C411.676 166.603 407.552 165.038 403.877 162.787C396.173 158.336 389.823 152.159 381.723 148.255C377.739 146.335 373.314 144.866 368.763 144.837C364.365 144.843 360.137 146.391 356.951 149.163C350.816 154.263 345.979 162.315 336.608 162.456C334.654 162.489 332.731 162.007 331.069 161.066C329.86 160.382 330.97 158.631 332.185 159.318C336.005 161.479 340.605 160.115 344.086 158.02C347.794 155.789 350.426 152.379 353.452 149.473C356.458 146.587 359.965 144.156 364.289 143.255C368.609 142.475 373.082 142.816 377.201 144.242C386.052 147.063 392.753 152.868 400.099 157.92C407.339 162.898 415.792 167.205 425.133 165.132C434.434 163.067 441.49 156.626 449.535 152.302C457.311 148.122 466.843 145.453 475.217 149.851C481.544 153.174 485.544 159.043 490.404 163.824C492.802 166.183 495.476 168.376 498.715 169.716C503.216 171.578 508.303 171.361 512.991 170.257C522.77 167.955 531.018 161.933 540.977 160.131C548.368 158.794 557.117 160.479 561.628 166.455C562.626 167.787 563.306 169.296 563.623 170.884C563.88 172.158 561.748 172.703 561.489 171.422L561.489 171.422Z" fill="#2F2E41"/>
<path d="M530.662 175.842C525.366 175.842 521.073 171.915 521.073 167.072C521.073 162.228 525.366 158.302 530.662 158.302C535.958 158.302 540.252 162.228 540.252 167.072C540.252 171.915 535.958 175.842 530.662 175.842Z" fill="#6C63FF"/>
<path d="M461.693 157.29C456.397 157.29 452.104 153.363 452.104 148.52C452.104 143.676 456.397 139.75 461.693 139.75C466.989 139.75 471.283 143.676 471.283 148.52C471.283 153.363 466.989 157.29 461.693 157.29Z" fill="#6C63FF"/>
<path d="M367.276 151.218C361.98 151.218 357.687 147.292 357.687 142.448C357.687 137.604 361.98 133.678 367.276 133.678C372.572 133.678 376.865 137.604 376.865 142.448C376.865 147.292 372.572 151.218 367.276 151.218Z" fill="#6C63FF"/>
<path d="M449.533 298.847H470.566C471.723 298.847 472.841 298.464 473.714 297.77C474.587 297.076 475.157 296.117 475.32 295.07C476.619 286.329 476.619 277.468 475.32 268.728C475.16 267.695 474.603 266.748 473.75 266.056C472.896 265.364 471.801 264.972 470.661 264.95C463.812 261.587 456.674 261.586 449.442 264.95C448.752 264.961 448.073 265.109 447.452 265.384C446.831 265.66 446.283 266.055 445.846 266.544C445.389 267.055 445.061 267.652 444.888 268.293C444.715 268.933 444.699 269.601 444.843 270.248C446.533 277.938 446.533 285.859 444.843 293.549C444.699 294.196 444.715 294.864 444.888 295.505C445.061 296.145 445.389 296.743 445.846 297.253C446.293 297.753 446.855 298.155 447.493 298.431C448.13 298.706 448.827 298.849 449.533 298.847Z" fill="#6C63FF"/>
<path d="M352.902 35.9314L373.936 35.9314C375.093 35.9306 376.21 35.5481 377.084 34.8541C377.957 34.1602 378.527 33.2014 378.69 32.1538C379.989 23.4132 379.989 14.5522 378.69 5.8116C378.529 4.7766 377.971 3.82783 377.114 3.13561C376.258 2.44338 375.159 2.05304 374.016 2.03465C367.399 -0.678328 360.272 -0.677997 352.83 2.03432C352.137 2.04273 351.454 2.18979 350.83 2.46515C350.206 2.74052 349.655 3.13753 349.216 3.62831C348.759 4.13887 348.431 4.73621 348.258 5.37694C348.084 6.01767 348.069 6.6857 348.213 7.33247C349.903 15.0224 349.903 22.943 348.213 30.6329C348.069 31.2797 348.084 31.9477 348.258 32.5884C348.431 33.2292 348.759 33.8265 349.216 34.3371C349.662 34.8365 350.225 35.2388 350.863 35.5145C351.5 35.7903 352.197 35.9327 352.902 35.9314Z" fill="#6C63FF"/>
<path d="M520.55 53.4507L541.583 53.4507C542.288 53.4521 542.985 53.3097 543.623 53.0339C544.261 52.7581 544.823 52.3559 545.269 51.8564C545.727 51.3459 546.054 50.7485 546.228 50.1078C546.401 49.4671 546.416 48.799 546.272 48.1523C544.583 40.4623 544.583 32.5418 546.272 24.8518C546.416 24.205 546.401 23.5369 546.228 22.8961C546.054 22.2554 545.727 21.658 545.269 21.1473C544.832 20.6584 544.284 20.2625 543.662 19.9873C543.041 19.7121 542.361 19.5643 541.671 19.554C535.276 16.6898 528.146 16.6898 520.476 19.554C519.332 19.5707 518.232 19.9604 517.374 20.6528C516.516 21.3452 515.957 22.2949 515.796 23.331C514.497 32.0714 514.497 40.9324 515.796 49.6728C515.958 50.7204 516.529 51.6794 517.402 52.3734C518.275 53.0674 519.393 53.45 520.55 53.4507Z" fill="#CFCFDE"/>
<path d="M355.105 12.0776L372.808 12.0776Cnan nan nan nan 372.808 12.0776L355.105 10.0537V12.0776Cnan nan nan nan 355.105 12.0776Z" fill="white"/>
<path d="M355.105 20.173L372.808 20.173Cnan nan nan nan 372.808 20.173L355.105 18.1491V20.173Cnan nan nan nan 355.105 20.173Z" fill="white"/>
<path d="M355.105 28.2684L372.808 28.2684Cnan nan nan nan 372.808 28.2684L355.105 26.2446V28.2684Cnan nan nan nan 355.105 28.2684Z" fill="white"/>
<path d="M520.228 28.2684L537.931 28.2684Cnan nan nan nan 537.931 28.2684L520.228 26.2446V28.2684Cnan nan nan nan 520.228 28.2684Z" fill="white"/>
<path d="M520.228 36.3639L537.931 36.3639Cnan nan nan nan 537.931 36.3639L520.228 34.34V36.3639Cnan nan nan nan 520.228 36.3639Z" fill="white"/>
<path d="M520.228 44.4593L537.931 44.4593Cnan nan nan nan 537.931 44.4593L520.228 42.4355V44.4593Cnan nan nan nan 520.228 44.4593Z" fill="white"/>
<path d="M450.89 273.156H468.594Cnan nan nan nan 468.594 273.156L450.89 271.132V273.156Cnan nan nan nan 450.89 273.156Z" fill="white"/>
<path d="M450.89 281.251H468.594Cnan nan nan nan 468.594 281.251L450.89 279.227V281.251Cnan nan nan nan 450.89 281.251Z" fill="white"/>
<path d="M450.89 289.347H468.594Cnan nan nan nan 468.594 289.347L450.89 287.323V289.347Cnan nan nan nan 450.89 289.347Z" fill="white"/>
<path d="M102.818 242.602L152.078 232.412L170.328 271.132L175.491 350.062L162.037 414.151H135.078L147.461 350.062L144.511 301.49L130.687 359.821L94.0587 408.216L77.1586 394.866L106.154 349.388C106.154 349.388 94.0145 267.743 106.891 253.592L102.818 242.602Z" fill="#2F2E41"/>
<path d="M132.212 165.712L128.266 164.356L123.289 156.997L105.562 158.322L101.254 166.213L90.8738 173.462L95.4131 195.326L102.465 221.885L149.674 216.488L149.624 196.495C149.624 196.495 158.155 180.7 144.375 174.781L132.212 165.712Z" fill="white"/>
<path d="M204.98 235.061C204.063 235.397 203.077 235.546 202.091 235.496C201.105 235.446 200.143 235.199 199.273 234.773C198.402 234.346 197.645 233.75 197.053 233.027C196.462 232.304 196.051 231.471 195.85 230.586L143.213 201.457L152.834 191.304L201.549 223.13C203.196 222.92 204.87 223.269 206.254 224.111C207.638 224.954 208.636 226.231 209.059 227.702C209.481 229.173 209.3 230.734 208.548 232.09C207.796 233.446 206.527 234.503 204.98 235.061V235.061Z" fill="#9E616A"/>
<path d="M125.673 187.643C125.673 187.643 123.158 189.958 129.47 193.764C134.523 196.812 157.062 211.87 165.052 214.252C164.952 215.325 165.245 216.398 165.886 217.302C166.526 218.207 167.477 218.89 168.589 219.245L175.823 204.706C174.257 201.382 171.753 202.152 170.435 202.905L161.698 196.896L140.243 177.302L127.459 185.941L125.673 187.643Z" fill="white"/>
<path d="M206.343 237.418H227.376C228.082 237.419 228.779 237.277 229.416 237.001C230.054 236.725 230.616 236.323 231.063 235.823C231.52 235.313 231.847 234.716 232.021 234.075C232.194 233.434 232.21 232.766 232.065 232.119C230.376 224.429 230.376 216.509 232.065 208.819C232.21 208.172 232.194 207.504 232.021 206.863C231.847 206.222 231.52 205.625 231.063 205.114C230.626 204.625 230.077 204.23 229.456 203.954C228.834 203.679 228.154 203.531 227.464 203.521C221.069 200.657 213.939 200.657 206.269 203.521C205.125 203.538 204.025 203.927 203.167 204.62C202.309 205.312 201.75 206.262 201.589 207.298C200.291 216.038 200.291 224.899 201.589 233.64C201.752 234.687 202.322 235.646 203.195 236.34C204.068 237.034 205.186 237.417 206.343 237.418Z" fill="#6C63FF"/>
<path d="M206.021 212.236H223.724Cnan nan nan nan 223.724 212.236L206.021 210.212V212.236Cnan nan nan nan 206.021 212.236Z" fill="white"/>
<path d="M206.021 220.331H223.724Cnan nan nan nan 223.724 220.331L206.021 218.307V220.331Cnan nan nan nan 206.021 220.331Z" fill="white"/>
<path d="M206.021 228.426H223.724Cnan nan nan nan 223.724 228.426L206.021 226.403V228.426Cnan nan nan nan 206.021 228.426Z" fill="white"/>
<path d="M104.549 295.435H125.583C126.288 295.437 126.985 295.294 127.623 295.018C128.26 294.743 128.823 294.34 129.269 293.841C129.727 293.33 130.054 292.733 130.227 292.092C130.401 291.452 130.416 290.784 130.272 290.137C128.582 282.447 128.582 274.526 130.272 266.836C130.416 266.19 130.401 265.521 130.227 264.881C130.054 264.24 129.727 263.642 129.269 263.132C128.832 262.643 128.284 262.247 127.662 261.972C127.04 261.697 126.361 261.549 125.67 261.539C119.276 258.674 112.146 258.674 104.476 261.539C103.332 261.555 102.232 261.945 101.374 262.637C100.516 263.33 99.9563 264.279 99.7959 265.315C98.4971 274.056 98.4971 282.917 99.7959 291.657C99.9581 292.705 100.528 293.664 101.401 294.358C102.275 295.052 103.392 295.435 104.549 295.435Z" fill="#CFCFDE"/>
<path d="M104.228 270.253H121.931Cnan nan nan nan 121.931 270.253L104.228 268.229V270.253Cnan nan nan nan 104.228 270.253Z" fill="white"/>
<path d="M104.228 278.348H121.931Cnan nan nan nan 121.931 278.348L104.228 276.324V278.348Cnan nan nan nan 104.228 278.348Z" fill="white"/>
<path d="M104.228 286.444H121.931Cnan nan nan nan 121.931 286.444L104.228 284.42V286.444Cnan nan nan nan 104.228 286.444Z" fill="white"/>
<path d="M113.887 266.468C112.967 266.141 112.136 265.633 111.454 264.98C110.771 264.327 110.253 263.546 109.937 262.69C109.62 261.835 109.512 260.926 109.621 260.029C109.73 259.131 110.053 258.266 110.567 257.495L93.9146 203.327L108.525 201.931L120.3 255.615C121.659 256.491 122.62 257.792 123 259.272C123.381 260.752 123.155 262.309 122.364 263.646C121.574 264.984 120.274 266.01 118.712 266.53C117.15 267.05 115.433 267.028 113.887 266.468Z" fill="#9E616A"/>
<path d="M91.4515 173.592C91.4515 173.592 87.8853 173.71 89.6481 180.434C91.0593 185.817 96.2419 219.586 100.294 226.319C99.4189 227.04 98.8309 228.007 98.6226 229.067C98.4144 230.127 98.5978 231.221 99.1438 232.175L115.291 226.084C116.632 222.679 115.593 219.588 114.068 219.314L112.181 209.466L109.401 176.427L94.0276 173.466L91.4515 173.592Z" fill="white"/>
<path d="M104.63 112.218C102.186 115.517 100.607 119.287 100.016 123.234C99.4254 127.182 99.8384 131.201 101.223 134.979" fill="#FD6584"/>
<path d="M18.5054 441.976C18.5051 442.081 18.5276 442.186 18.5716 442.283C18.6156 442.381 18.6802 442.469 18.7618 442.544C18.8434 442.619 18.9403 442.678 19.0469 442.718C19.1536 442.758 19.2679 442.779 19.3833 442.779L226.135 442.779C226.25 442.779 226.364 442.758 226.471 442.717C226.577 442.677 226.674 442.618 226.755 442.543C226.837 442.469 226.902 442.38 226.946 442.283C226.99 442.186 227.013 442.081 227.013 441.976C227.013 441.87 226.99 441.766 226.946 441.668C226.902 441.571 226.837 441.483 226.755 441.408C226.674 441.333 226.577 441.274 226.471 441.234C226.364 441.194 226.25 441.173 226.135 441.173L19.3833 441.173C19.2679 441.173 19.1536 441.193 19.047 441.233C18.9403 441.274 18.8434 441.333 18.7618 441.407C18.6802 441.482 18.6156 441.571 18.5716 441.668C18.5276 441.766 18.5051 441.87 18.5054 441.976Z" fill="#CFCFDE"/>
</g>
<defs>
<clipPath id="clip0_326_551">
<rect width="600" height="442.778" fill="white" transform="matrix(-1 0 0 1 600 0)"/>
</clipPath>
</defs>
</svg>
