<svg width="600" height="408" viewBox="0 0 600 408" fill="none" xmlns="http://www.w3.org/2000/svg">
<g clip-path="url(#clip0_326_658)">
<path d="M40.3785 306.969C37.5294 306.969 34.6745 307.087 31.8864 307.324L31.4806 307.358C12.9873 308.994 -0.539792 318.486 0.016538 329.438L0.124089 331.418C0.195014 332.67 0.270582 334.016 0.332782 335.509C0.366471 336.245 1.37047 336.81 2.61976 336.81H457.512C489.584 336.615 521.54 336.37 552.487 336.081C558.291 336.093 564.091 335.792 569.863 335.18C578.463 334.161 584.432 332.142 588.113 329.007H588.114C592.692 325.119 592.836 320.224 592.559 314.692C591.996 303.523 591.436 291.79 590.878 280.092C590.385 269.783 589.895 259.501 589.404 249.657C589.1 243.815 588.426 238.659 583.228 234.718C577.593 230.456 567.318 228.296 552.686 228.296C552.509 228.296 552.333 228.296 552.154 228.296C506.299 228.46 460.863 244.239 439.094 267.562C436.588 270.248 434.252 273.123 431.993 275.904C428.655 280.012 425.204 284.26 421.086 288.058C418.856 290.143 416.445 292.024 413.881 293.679C413.704 293.801 413.502 293.932 413.288 294.056C412.798 294.376 412.287 294.683 411.788 294.957C408.867 296.645 405.79 298.046 402.599 299.138L402.277 299.246C402.035 299.333 401.772 299.42 401.509 299.499C399.666 300.091 397.752 300.603 395.834 301.017C387.536 302.847 378.101 303.286 367.791 302.32C358.323 301.409 348.977 299.503 339.907 296.633C330.36 293.614 321.424 289.849 312.782 286.208C308.985 284.608 305.059 282.955 301.138 281.388C300.401 281.093 299.676 280.805 298.94 280.516C294.151 278.648 289.809 277.106 285.666 275.8C275.403 272.553 264.779 270.583 254.035 269.937C242.63 269.312 232.58 270.49 224.171 273.431C221.852 274.239 219.595 275.213 217.415 276.344C207.455 281.521 201.314 289.161 195.377 296.549C187.99 305.739 180.352 315.243 165.27 320.17C147.867 325.86 122.463 323.496 104.491 319.385C98.8403 318.092 93.1967 316.605 87.7386 315.167C85.5342 314.585 83.3282 314.008 81.1207 313.435C76.7828 312.314 73.2326 311.455 69.9481 310.73L68.9092 310.499C68.3313 310.374 67.7529 310.248 67.164 310.128C63.2627 309.309 59.6299 308.664 56.0524 308.156L55.206 308.033C53.5091 307.809 51.9226 307.623 50.3658 307.466L49.7444 307.404C46.6953 307.114 43.5398 306.969 40.3785 306.969Z" fill="white"/>
<path d="M510.764 319.192C523.564 307.648 542.602 301.844 558.572 308.317C542.19 317.419 529.554 332.027 522.898 349.556C520.356 356.325 518.232 364.119 511.979 367.743C508.088 369.999 503.247 370.109 498.884 369.02C494.522 367.931 490.523 365.749 486.578 363.589L485.456 363.563C490.494 347.073 497.964 330.735 510.764 319.192Z" fill="#CFCFDE"/>
<path d="M558.483 308.668C544.339 310.497 531.13 316.74 520.734 326.509C518.458 328.573 516.522 330.982 514.996 333.649C513.593 336.295 512.925 339.268 513.059 342.261C513.128 345.053 513.522 347.901 512.911 350.662C512.578 352.07 511.951 353.392 511.071 354.541C510.191 355.69 509.079 356.64 507.807 357.328C504.681 359.126 501.097 359.693 497.572 360.125C493.659 360.605 489.587 361.042 486.199 363.239C485.789 363.505 485.4 362.852 485.81 362.586C491.704 358.764 499.161 360.155 505.499 357.604C508.456 356.414 511.072 354.324 511.998 351.166C512.808 348.403 512.405 345.466 512.31 342.639C512.137 339.722 512.679 336.807 513.891 334.148C515.276 331.412 517.116 328.932 519.333 326.814C524.247 321.966 529.893 317.921 536.063 314.828C543.085 311.259 550.665 308.918 558.476 307.907C558.959 307.845 558.963 308.606 558.483 308.668H558.483Z" fill="white"/>
<path d="M523.896 323.166C522.495 321.198 521.839 318.796 522.044 316.388C522.25 313.98 523.304 311.724 525.019 310.022C525.367 309.679 525.916 310.204 525.567 310.548C523.968 312.129 522.986 314.231 522.799 316.474C522.612 318.716 523.233 320.952 524.548 322.777C524.834 323.174 524.18 323.561 523.896 323.166V323.166Z" fill="white"/>
<path d="M512.837 340.849C517.698 341.711 522.704 340.708 526.859 338.04C527.27 337.775 527.659 338.428 527.248 338.692C522.92 341.461 517.708 342.494 512.652 341.586C512.17 341.499 512.358 340.763 512.837 340.849Z" fill="white"/>
<path d="M543.146 312.265C543.53 313.14 544.125 313.905 544.877 314.493C545.629 315.081 546.515 315.472 547.456 315.633C547.939 315.713 547.75 316.45 547.27 316.37C546.232 316.188 545.253 315.754 544.421 315.106C543.588 314.459 542.927 313.617 542.494 312.655C542.446 312.567 542.433 312.465 542.457 312.368C542.481 312.271 542.542 312.187 542.626 312.134C542.712 312.082 542.816 312.068 542.913 312.092C543.011 312.117 543.094 312.179 543.146 312.265Z" fill="white"/>
<path d="M576.158 363.984C575.855 363.942 575.552 363.901 575.245 363.863C571.17 363.322 567.059 363.113 562.95 363.238C562.633 363.243 562.311 363.253 561.994 363.266C552.099 363.674 542.366 365.916 533.289 369.879C529.679 371.459 526.194 373.312 522.865 375.421C518.267 378.335 513.513 381.86 508.373 383.048C507.838 383.178 507.296 383.275 506.749 383.338L485.512 364.935C485.485 364.869 485.453 364.808 485.426 364.742L484.544 364.046C484.708 363.925 484.881 363.803 485.045 363.682C485.14 363.612 485.24 363.545 485.335 363.475C485.399 363.429 485.465 363.384 485.52 363.339C485.542 363.324 485.564 363.308 485.581 363.298C485.637 363.253 485.693 363.217 485.745 363.177C486.709 362.494 487.68 361.816 488.657 361.144C488.661 361.139 488.661 361.139 488.67 361.139C496.066 355.946 504.052 351.651 512.459 348.341C512.711 348.246 512.967 348.145 513.229 348.058C517.016 346.65 520.911 345.553 524.875 344.779C527.048 344.362 529.24 344.056 531.443 343.861C537.137 343.368 542.873 343.775 548.441 345.066C559.54 347.641 569.692 353.741 575.705 363.253C575.859 363.496 576.008 363.736 576.158 363.984Z" fill="#CFCFDE"/>
<path d="M575.877 364.213C563.483 357.151 549.181 354.177 535.002 355.713C531.944 355.989 528.948 356.746 526.126 357.956C523.414 359.224 521.091 361.195 519.398 363.665C517.774 365.936 516.375 368.448 514.227 370.284C513.113 371.208 511.817 371.885 510.423 372.273C509.03 372.66 507.57 372.748 506.14 372.531C502.563 372.083 499.36 370.376 496.286 368.598C492.873 366.623 489.358 364.518 485.332 364.231C484.844 364.196 484.927 363.44 485.414 363.475C492.419 363.975 497.537 369.579 504.131 371.361C507.209 372.192 510.555 372.1 513.194 370.136C515.503 368.419 516.948 365.83 518.573 363.516C520.189 361.083 522.376 359.082 524.943 357.689C527.695 356.339 530.656 355.468 533.701 355.112C540.541 354.203 547.482 354.375 554.269 355.623C562.023 357.004 569.484 359.702 576.328 363.601C576.752 363.843 576.297 364.452 575.877 364.213V364.213Z" fill="white"/>
<path d="M539.539 354.949C539.604 352.533 540.525 350.22 542.138 348.421C543.751 346.622 545.95 345.456 548.342 345.13C548.827 345.066 548.949 345.816 548.464 345.88C546.236 346.18 544.187 347.266 542.689 348.944C541.191 350.622 540.341 352.781 540.294 355.031C540.283 355.52 539.528 355.435 539.539 354.949V354.949Z" fill="white"/>
<path d="M520.071 362.405C523.433 366.022 528.034 368.237 532.956 368.61C533.444 368.646 533.361 369.402 532.874 369.365C527.753 368.968 522.97 366.653 519.479 362.881C519.146 362.522 519.74 362.047 520.071 362.405H520.071Z" fill="white"/>
<path d="M561.467 357.844C561.247 358.774 561.261 359.743 561.508 360.666C561.755 361.588 562.227 362.435 562.882 363.13C563.219 363.485 562.625 363.959 562.29 363.606C561.571 362.835 561.05 361.899 560.775 360.881C560.5 359.862 560.478 358.791 560.712 357.762C560.726 357.663 560.777 357.574 560.855 357.511C560.932 357.449 561.031 357.418 561.13 357.425C561.23 357.437 561.322 357.487 561.385 357.566C561.448 357.644 561.477 357.744 561.467 357.844Z" fill="white"/>
<path d="M175.692 330.672C186.173 314.763 204.922 303.254 223.801 305.731C208.811 320.027 199.356 339.168 197.11 359.769C196.273 367.717 196.168 376.644 190.488 382.262C186.953 385.757 181.806 387.222 176.838 387.273C171.869 387.323 166.985 386.102 162.166 384.89L160.959 385.175C161.763 366.136 165.211 346.582 175.692 330.672Z" fill="#CFCFDE"/>
<path d="M223.803 306.13C209.184 312.025 196.793 322.379 188.389 335.723C186.529 338.563 185.127 341.679 184.237 344.956C183.472 348.177 183.584 351.543 184.559 354.706C185.409 357.673 186.622 360.61 186.737 363.732C186.772 365.332 186.468 366.92 185.847 368.394C185.225 369.867 184.3 371.193 183.13 372.284C180.287 375.077 176.611 376.681 172.962 378.124C168.91 379.727 164.676 381.328 161.663 384.621C161.298 385.02 160.701 384.43 161.066 384.031C166.307 378.303 174.669 377.714 180.738 373.221C183.57 371.125 185.788 368.162 185.9 364.526C185.999 361.346 184.75 358.316 183.864 355.319C182.867 352.248 182.637 348.979 183.194 345.798C183.915 342.486 185.194 339.321 186.976 336.439C190.884 329.885 195.798 323.988 201.537 318.962C208.055 313.189 215.511 308.575 223.584 305.319C224.084 305.118 224.3 305.93 223.803 306.13L223.803 306.13Z" fill="white"/>
<path d="M190.842 331.267C188.796 329.552 187.427 327.165 186.977 324.532C186.528 321.9 187.028 319.193 188.388 316.896C188.665 316.432 189.399 316.84 189.121 317.305C187.851 319.442 187.385 321.963 187.808 324.414C188.232 326.864 189.517 329.083 191.431 330.668C191.847 331.013 191.255 331.61 190.842 331.267Z" fill="white"/>
<path d="M183.93 353.258C189.368 352.827 194.444 350.36 198.145 346.35C198.511 345.952 199.109 346.542 198.743 346.939C194.883 351.105 189.596 353.662 183.936 354.098C183.397 354.139 183.393 353.299 183.93 353.258H183.93Z" fill="white"/>
<path d="M208.4 314.248C209.054 315.077 209.902 315.73 210.87 316.149C211.838 316.568 212.895 316.74 213.946 316.65C214.485 316.602 214.487 317.442 213.952 317.49C212.791 317.584 211.624 317.393 210.553 316.932C209.483 316.471 208.542 315.755 207.811 314.846C207.735 314.766 207.693 314.66 207.692 314.55C207.691 314.44 207.732 314.333 207.807 314.252C207.885 314.173 207.992 314.129 208.103 314.128C208.214 314.127 208.321 314.17 208.4 314.248H208.4Z" fill="white"/>
<path d="M258.084 360.372C257.748 360.412 257.413 360.451 257.074 360.497C252.566 361.053 248.11 361.974 243.751 363.252C243.412 363.345 243.071 363.445 242.735 363.548C232.266 366.738 222.48 371.846 213.874 378.612C210.451 381.307 207.239 384.259 204.265 387.442C200.157 391.838 196.053 396.932 190.886 399.634C190.35 399.922 189.796 400.176 189.229 400.396L161.4 386.627C161.353 386.563 161.302 386.507 161.254 386.443L160.118 385.944C160.26 385.77 160.411 385.591 160.553 385.416C160.634 385.315 160.723 385.216 160.804 385.114C160.861 385.047 160.918 384.98 160.965 384.917C160.984 384.894 161.003 384.872 161.019 384.856C161.066 384.793 161.117 384.739 161.161 384.681C162.002 383.682 162.852 382.687 163.71 381.696C163.713 381.69 163.713 381.69 163.722 381.687C170.28 374.154 177.525 367.103 185.608 361.376C185.851 361.204 186.097 361.025 186.353 360.859C190.011 358.298 193.872 356.041 197.897 354.109C200.105 353.059 202.364 352.121 204.666 351.299C210.619 349.186 216.867 348.024 223.181 347.855C235.768 347.52 248.321 351.217 257.397 359.716C257.629 359.934 257.855 360.148 258.084 360.372Z" fill="#CFCFDE"/>
<path d="M257.847 360.695C242.628 356.593 226.505 357.394 211.768 362.984C208.574 364.131 205.58 365.775 202.898 367.855C200.35 369.966 198.413 372.721 197.289 375.834C196.183 378.715 195.385 381.791 193.598 384.353C192.664 385.651 191.466 386.736 190.083 387.539C188.7 388.341 187.164 388.841 185.574 389.007C181.624 389.525 177.724 388.59 173.941 387.544C169.742 386.383 165.398 385.109 161.012 385.923C160.48 386.022 160.359 385.191 160.889 385.092C168.52 383.676 175.552 388.245 183.1 388.315C186.622 388.347 190.176 387.318 192.453 384.482C194.444 382.002 195.27 378.832 196.365 375.904C197.417 372.851 199.2 370.103 201.558 367.899C204.126 365.689 207.052 363.932 210.209 362.704C217.272 359.827 224.743 358.078 232.349 357.523C241.026 356.842 249.755 357.651 258.16 359.915C258.68 360.056 258.363 360.834 257.847 360.695Z" fill="white"/>
<path d="M216.407 360.904C215.806 358.302 216.148 355.571 217.373 353.199C218.597 350.826 220.625 348.966 223.094 347.951C223.594 347.748 223.933 348.516 223.433 348.72C221.132 349.661 219.244 351.393 218.108 353.605C216.971 355.817 216.663 358.362 217.237 360.782C217.362 361.308 216.531 361.427 216.407 360.904H216.407Z" fill="white"/>
<path d="M197.658 374.299C202.26 377.231 207.796 378.319 213.164 377.347C213.696 377.251 213.818 378.082 213.287 378.178C207.699 379.179 201.94 378.035 197.158 374.973C196.702 374.681 197.205 374.008 197.658 374.299V374.299Z" fill="white"/>
<path d="M240.665 357.895C240.688 358.951 240.973 359.984 241.494 360.902C242.014 361.82 242.754 362.594 243.648 363.155C244.107 363.441 243.604 364.113 243.148 363.829C242.163 363.205 241.347 362.349 240.769 361.336C240.192 360.323 239.871 359.184 239.835 358.018C239.822 357.909 239.852 357.798 239.918 357.71C239.983 357.621 240.08 357.561 240.189 357.541C240.299 357.526 240.41 357.554 240.5 357.62C240.589 357.687 240.648 357.786 240.665 357.895V357.895Z" fill="white"/>
<path d="M250.285 211.394C250.98 210.701 251.515 209.864 251.853 208.943C252.19 208.021 252.322 207.036 252.238 206.058C252.154 205.08 251.856 204.132 251.367 203.281C250.877 202.43 250.207 201.697 249.404 201.134L260.357 148.08L248.54 151.811L239.727 203.136C238.87 204.55 238.561 206.228 238.859 207.854C239.156 209.48 240.04 210.94 241.341 211.958C242.642 212.976 244.272 213.481 245.92 213.377C247.568 213.273 249.121 212.567 250.285 211.394Z" fill="#FFB6B6"/>
<path d="M275.603 69.578L268.283 64.0478C268.283 64.0478 261.825 63.5902 260.681 75.2452C259.538 86.9002 252.377 131.632 252.377 131.632L241.175 183.555L256.681 186.961L268.679 130.927L280.689 92.269L275.603 69.578Z" fill="#CFCFDE"/>
<path d="M270.026 165.654L234.911 138.329C234.364 137.902 234.009 137.276 233.923 136.587C233.836 135.899 234.027 135.204 234.452 134.656L258.344 103.904C258.77 103.357 259.396 103.001 260.084 102.915C260.772 102.829 261.466 103.019 262.014 103.445L297.129 130.77C297.676 131.197 298.032 131.823 298.118 132.512C298.204 133.2 298.014 133.895 297.589 134.443L273.697 165.195C273.27 165.742 272.645 166.098 271.956 166.184C271.268 166.27 270.574 166.079 270.026 165.654Z" fill="#2F2E41"/>
<path d="M269.833 162.827L237.697 137.819C237.211 137.441 236.896 136.885 236.819 136.273C236.743 135.662 236.912 135.045 237.289 134.558L258.948 106.681C259.327 106.195 259.883 105.879 260.494 105.802C261.104 105.726 261.721 105.895 262.207 106.272L294.344 131.28C294.829 131.659 295.145 132.215 295.221 132.826C295.298 133.437 295.129 134.054 294.752 134.541L273.092 162.419C272.714 162.905 272.158 163.22 271.547 163.297C270.936 163.374 270.32 163.204 269.833 162.827Z" fill="white"/>
<path d="M241.91 137.11C241.789 137.016 241.71 136.877 241.691 136.724C241.672 136.571 241.714 136.417 241.808 136.295L252.735 122.232C252.829 122.11 252.968 122.031 253.121 122.012C253.196 122.002 253.273 122.008 253.347 122.028C253.42 122.048 253.489 122.083 253.549 122.13C253.609 122.176 253.66 122.235 253.697 122.301C253.735 122.367 253.759 122.44 253.769 122.516C253.778 122.592 253.773 122.669 253.753 122.742C253.732 122.816 253.698 122.885 253.651 122.945L242.725 137.008C242.63 137.13 242.491 137.209 242.338 137.228C242.186 137.247 242.032 137.205 241.91 137.11Z" fill="white"/>
<path d="M243.721 138.519C243.6 138.425 243.521 138.286 243.502 138.133C243.482 137.98 243.525 137.826 243.619 137.704L254.546 123.641C254.64 123.519 254.779 123.44 254.932 123.421C255.084 123.402 255.239 123.444 255.36 123.539C255.482 123.633 255.561 123.772 255.58 123.925C255.599 124.078 255.557 124.232 255.462 124.354L244.536 138.417C244.441 138.539 244.302 138.618 244.149 138.637C243.997 138.656 243.843 138.614 243.721 138.519Z" fill="white"/>
<path d="M251.722 131.962C251.601 131.867 251.522 131.728 251.503 131.575C251.484 131.422 251.526 131.268 251.62 131.146L256.356 125.05C256.403 124.99 256.461 124.939 256.528 124.901C256.594 124.863 256.667 124.839 256.743 124.83C256.819 124.82 256.895 124.825 256.969 124.846C257.043 124.866 257.112 124.9 257.172 124.947C257.232 124.994 257.282 125.052 257.32 125.119C257.358 125.185 257.382 125.258 257.392 125.334C257.401 125.41 257.395 125.487 257.375 125.561C257.355 125.634 257.32 125.703 257.273 125.763L252.537 131.859C252.442 131.981 252.303 132.06 252.151 132.079C251.998 132.098 251.844 132.056 251.722 131.962Z" fill="white"/>
<path d="M254.164 143.924C254.042 143.83 253.963 143.691 253.944 143.538C253.925 143.385 253.967 143.231 254.062 143.109L271.311 120.907C271.358 120.847 271.416 120.797 271.483 120.759C271.549 120.721 271.622 120.697 271.698 120.688C271.773 120.678 271.85 120.684 271.923 120.704C271.997 120.724 272.066 120.759 272.126 120.805C272.186 120.852 272.237 120.911 272.274 120.977C272.312 121.043 272.336 121.116 272.346 121.192C272.355 121.268 272.35 121.344 272.329 121.418C272.309 121.492 272.275 121.56 272.228 121.621L254.978 143.822C254.884 143.944 254.745 144.023 254.592 144.042C254.439 144.061 254.285 144.019 254.164 143.924Z" fill="white"/>
<path d="M255.975 145.334C255.853 145.239 255.774 145.1 255.755 144.947C255.736 144.794 255.778 144.64 255.873 144.518L273.122 122.317C273.169 122.256 273.227 122.206 273.294 122.168C273.36 122.131 273.433 122.106 273.509 122.097C273.584 122.087 273.661 122.093 273.734 122.113C273.808 122.133 273.877 122.168 273.937 122.215C273.997 122.261 274.048 122.32 274.085 122.386C274.123 122.452 274.147 122.525 274.157 122.601C274.166 122.677 274.161 122.754 274.14 122.827C274.12 122.901 274.086 122.97 274.039 123.03L256.789 145.232C256.695 145.353 256.556 145.432 256.403 145.451C256.25 145.47 256.096 145.428 255.975 145.334Z" fill="white"/>
<path d="M260.085 148.532C259.964 148.438 259.885 148.299 259.866 148.146C259.847 147.993 259.889 147.839 259.984 147.717L277.233 125.515C277.28 125.455 277.338 125.405 277.404 125.367C277.471 125.329 277.544 125.305 277.619 125.296C277.695 125.286 277.772 125.292 277.845 125.312C277.919 125.332 277.988 125.367 278.048 125.413C278.108 125.46 278.158 125.518 278.196 125.585C278.234 125.651 278.258 125.724 278.267 125.8C278.277 125.876 278.271 125.952 278.251 126.026C278.231 126.1 278.196 126.168 278.15 126.229L260.9 148.43C260.806 148.552 260.667 148.631 260.514 148.65C260.361 148.669 260.207 148.627 260.085 148.532Z" fill="white"/>
<path d="M261.896 149.942C261.775 149.847 261.696 149.708 261.677 149.555C261.658 149.402 261.7 149.248 261.794 149.126L279.044 126.925C279.091 126.864 279.149 126.814 279.215 126.776C279.281 126.738 279.355 126.714 279.43 126.705C279.506 126.695 279.583 126.701 279.656 126.721C279.73 126.741 279.798 126.776 279.859 126.823C279.919 126.869 279.969 126.928 280.007 126.994C280.045 127.06 280.069 127.133 280.078 127.209C280.088 127.285 280.082 127.362 280.062 127.435C280.042 127.509 280.007 127.578 279.961 127.638L262.711 149.84C262.617 149.961 262.478 150.04 262.325 150.059C262.172 150.078 262.018 150.036 261.896 149.942Z" fill="white"/>
<path d="M266.007 153.141C265.886 153.046 265.807 152.907 265.788 152.754C265.769 152.601 265.811 152.447 265.905 152.325L283.155 130.124C283.202 130.063 283.26 130.013 283.326 129.975C283.392 129.937 283.465 129.913 283.541 129.904C283.617 129.894 283.693 129.9 283.767 129.92C283.84 129.94 283.909 129.975 283.969 130.022C284.03 130.068 284.08 130.127 284.118 130.193C284.155 130.259 284.18 130.332 284.189 130.408C284.199 130.484 284.193 130.561 284.173 130.634C284.153 130.708 284.118 130.777 284.071 130.837L266.822 153.038C266.727 153.16 266.588 153.239 266.436 153.258C266.283 153.277 266.129 153.235 266.007 153.141Z" fill="white"/>
<path d="M267.818 154.55C267.697 154.455 267.618 154.316 267.599 154.163C267.58 154.01 267.622 153.856 267.716 153.734L284.966 131.533C285.06 131.412 285.199 131.333 285.352 131.314C285.504 131.295 285.658 131.338 285.779 131.432C285.901 131.527 285.98 131.665 285.999 131.818C286.018 131.97 285.976 132.124 285.882 132.246L268.633 154.448C268.538 154.569 268.399 154.648 268.247 154.667C268.094 154.686 267.94 154.644 267.818 154.55Z" fill="white"/>
<path d="M238.989 180.334C239.12 180.334 239.227 180.227 239.227 180.095C239.227 179.963 239.12 179.856 238.989 179.856C238.857 179.856 238.75 179.963 238.75 180.095C238.75 180.227 238.857 180.334 238.989 180.334Z" fill="white"/>
<path d="M273.722 15.9625C272.883 20.4705 271.509 24.8618 269.627 29.0426C258.851 51.8564 289.538 44.4203 300.505 44.4203C312.495 44.4203 323.968 50.7303 322.215 22.6928C321.467 10.7164 312.495 0.965332 300.505 0.965332C290.263 0.965332 275.863 5.52116 273.722 15.9625Z" fill="#2F2E41"/>
<path d="M311.682 350.558H301.466L296.604 311.123H311.682V350.558Z" fill="#FFB6B6"/>
<path d="M317.073 368.272H309.747L308.44 361.35L305.09 368.272H285.66C284.728 368.272 283.821 367.974 283.071 367.422C282.321 366.87 281.767 366.092 281.489 365.202C281.212 364.312 281.227 363.357 281.53 362.475C281.834 361.594 282.411 360.833 283.178 360.304L298.695 349.579V342.581L315.016 343.556L317.073 368.272Z" fill="#2F2E41"/>
<path d="M372.374 337.656L364.176 343.757L336.762 315.016L348.861 306.011L372.374 337.656Z" fill="#FFB6B6"/>
<path d="M387.263 348.65L381.384 353.025L376.207 348.252L377.647 355.806L362.055 367.41C361.307 367.966 360.402 368.269 359.47 368.274C358.539 368.279 357.631 367.985 356.878 367.437C356.125 366.888 355.566 366.113 355.285 365.225C355.003 364.336 355.013 363.381 355.312 362.498L361.369 344.626L357.196 339.01L370.874 330.046L387.263 348.65Z" fill="#2F2E41"/>
<path d="M278.223 169.067L326.718 161.508L317.074 132.473H278.223V169.067Z" fill="#FFB6B6"/>
<path d="M323.575 147.097C323.575 147.097 342.958 163.856 334.015 211.632L323.097 258.444L352.844 310.129L337.718 318.385L301.061 267.397L284.287 228.019L275.414 159.006L323.575 147.097Z" fill="#2F2E41"/>
<path d="M293.532 239.241L292.366 257.31L295.779 310.817L312.722 316.655L315.931 261.832L293.532 239.241Z" fill="#2F2E41"/>
<path d="M288.323 50.4338L307.069 51.1657L314.539 63.5766L331.584 66.9067L321.409 118.424L323.28 147.747L306.308 147.643C294.076 147.568 282.248 152.016 273.091 160.132L273.599 122.068L266.298 93.6544L267.939 63.8606L281.651 62.1453L288.323 50.4338Z" fill="#CFCFDE"/>
<path d="M298.708 44.4148C308.452 44.4148 316.351 36.51 316.351 26.7588C316.351 17.0077 308.452 9.10278 298.708 9.10278C288.965 9.10278 281.066 17.0077 281.066 26.7588C281.066 36.51 288.965 44.4148 298.708 44.4148Z" fill="#FFB6B6"/>
<path d="M286.728 8.7609C289.819 6.87475 293.36 5.85445 296.98 5.80669C300.601 5.75892 304.167 6.68545 307.308 8.48937C310.448 10.2933 313.046 12.9084 314.83 16.0612C316.615 19.2139 317.52 22.7886 317.452 26.4115C308.462 28.6703 299.018 30.3988 289.431 26.9517L287.167 21.4065L285.832 26.9559C282.913 28.1501 279.986 29.1606 277.059 26.9443C276.939 23.3317 277.769 19.751 279.466 16.56C281.163 13.3691 283.667 10.6798 286.728 8.7609Z" fill="#2F2E41"/>
<path d="M328.321 183.343L330.699 204.943C330.865 205.482 331.199 205.954 331.652 206.289C332.105 206.624 332.654 206.805 333.217 206.805H344.18C344.744 206.805 345.292 206.624 345.746 206.289C346.199 205.954 346.533 205.482 346.698 204.943L348.668 188.388C349.237 188.667 349.863 188.807 350.497 188.796C351.13 188.786 351.751 188.625 352.31 188.327C352.869 188.029 353.349 187.603 353.712 187.083C354.074 186.563 354.307 185.964 354.393 185.337C354.479 184.709 354.415 184.069 354.206 183.471C353.997 182.873 353.649 182.333 353.191 181.896C352.733 181.458 352.178 181.136 351.571 180.955C350.964 180.774 350.323 180.74 349.7 180.856C349.454 180.565 349.148 180.332 348.803 180.172C348.457 180.013 348.081 179.93 347.701 179.931H330.84C330.427 179.931 330.021 180.028 329.653 180.214C329.285 180.4 328.965 180.67 328.72 181.001C328.475 181.333 328.312 181.718 328.242 182.125C328.173 182.532 328.2 182.949 328.321 183.343ZM349.013 187.268L350.219 183.343C350.359 182.89 350.373 182.408 350.259 181.948C350.311 181.945 350.359 181.932 350.411 181.932V187.65Cnan nan nan nan 350.411 187.65C349.92 187.647 349.438 187.515 349.013 187.268Z" fill="#6C63FF"/>
<path d="M344.852 206.819C344.16 206.123 343.629 205.284 343.296 204.36C342.964 203.437 342.837 202.452 342.926 201.474C343.015 200.496 343.317 199.55 343.811 198.701C344.305 197.853 344.979 197.124 345.785 196.564L335.101 143.455L346.9 147.246L355.452 198.616C356.301 200.034 356.601 201.714 356.296 203.338C355.99 204.963 355.099 206.418 353.793 207.429C352.486 208.441 350.854 208.937 349.207 208.825C347.559 208.712 346.009 207.999 344.852 206.819Z" fill="#FFB6B6"/>
<path d="M324.264 72.4369L331.584 66.9067C331.584 66.9067 338.042 66.449 339.186 78.104C340.33 89.759 347.491 134.491 347.491 134.491L358.693 186.414L343.186 189.82L331.188 133.786L319.178 95.1279L324.264 72.4369Z" fill="#CFCFDE"/>
<path d="M261.083 120.782C263.372 120.782 265.227 118.926 265.227 116.635C265.227 114.345 263.372 112.488 261.083 112.488C258.795 112.488 256.939 114.345 256.939 116.635C256.939 118.926 258.795 120.782 261.083 120.782Z" fill="#6C63FF"/>
<path d="M128.941 398.668L137.577 398.667L141.686 365.331L128.94 365.332L128.941 398.668Z" fill="#FFB6B6"/>
<path d="M126.739 395.846L129.169 395.846L138.659 391.983L143.746 395.845H143.747C146.621 395.845 149.378 396.988 151.41 399.022C153.443 401.056 154.585 403.815 154.585 406.692V407.044L126.739 407.045L126.739 395.846Z" fill="#2F2E41"/>
<path d="M162.407 393.221L170.832 395.125L182.176 363.513L169.743 360.704L162.407 393.221Z" fill="#FFB6B6"/>
<path d="M160.88 389.983L163.251 390.519L173.358 388.844L177.469 393.732L177.47 393.732C180.274 394.366 182.711 396.088 184.246 398.52C185.781 400.953 186.288 403.895 185.655 406.701L185.577 407.045L158.415 400.908L160.88 389.983Z" fill="#2F2E41"/>
<path d="M113.132 227.193L120.941 314.755C120.941 314.755 118.015 367.323 127.457 385.822H141.15L147.93 309.954L148.781 259.031L178.138 301.993L159.439 384.581L176.293 386.089L206.635 296.462L173.3 212.323L113.132 227.193Z" fill="#2F2E41"/>
<path d="M121.31 87.7513C132.433 87.7513 141.45 78.7275 141.45 67.596C141.45 56.4645 132.433 47.4407 121.31 47.4407C110.188 47.4407 101.171 56.4645 101.171 67.596C101.171 78.7275 110.188 87.7513 121.31 87.7513Z" fill="#FFB6B6"/>
<path d="M156.714 106.958L140.192 99.8635L132.149 91.3257L112.056 94.5687L106.725 103.717L89.4672 119.776L109.686 211.27L109.074 231.253C109.074 231.253 122.015 237.083 178.138 223.659C178.811 223.498 177.402 222.793 177.402 222.793L156.714 106.958Z" fill="#2F2E41"/>
<path d="M100.368 79.0327C100.228 78.841 100.089 78.6478 99.9515 78.4529C99.8961 78.5699 99.8521 78.6908 99.7888 78.8051L100.368 79.0327Z" fill="#2F2E41"/>
<path d="M141.344 52.8533C139.998 49.9183 137.598 47.5977 134.62 46.3525C131.669 45.1612 128.371 45.1641 125.422 46.3605C122.759 44.677 119.801 43.3424 116.686 43.1771C113.57 43.0118 110.276 44.1685 108.356 46.7148C107.927 47.3869 107.441 48.02 106.901 48.6068C105.358 50.0371 103.012 49.8308 100.961 49.5384C101.881 50.3275 102.801 51.1167 103.722 51.9059C102.608 52.197 101.494 52.4882 100.38 52.7794C101.68 53.5683 102.98 54.3572 104.279 55.1461C100.506 57.4126 98.7914 62.3595 99.2444 66.8523C99.6729 71.1059 101.725 74.9956 104.178 78.4528C105.156 76.3862 104.946 73.9134 104.929 71.5858C104.913 69.1265 105.347 66.3339 107.317 64.9594C108.645 64.0323 110.353 63.9909 111.955 63.9996C120.034 64.044 128.105 64.5483 136.127 65.5099C137.216 65.5571 138.277 65.8652 139.222 66.4083C140.996 67.6195 141.342 70.1192 141.52 72.3122C142.457 68.6912 142.916 64.9629 142.885 61.2226C142.964 58.3555 142.439 55.504 141.344 52.8533Z" fill="#2F2E41"/>
<path d="M147.614 288.574C165.121 288.574 179.313 274.371 179.313 256.851C179.313 239.331 165.121 225.128 147.614 225.128C130.108 225.128 115.916 239.331 115.916 256.851C115.916 274.371 130.108 288.574 147.614 288.574Z" fill="white"/>
<path d="M147.614 224.423C145.985 224.423 144.358 224.546 142.747 224.79C141.922 224.91 141.12 225.065 140.323 225.255C134.476 226.604 129.117 229.552 124.846 233.772C120.576 237.991 117.56 243.314 116.136 249.149C114.712 254.983 114.936 261.098 116.783 266.813C118.63 272.527 122.027 277.616 126.595 281.511C127.137 281.969 127.686 282.413 128.257 282.836C132.369 285.904 137.151 287.952 142.209 288.809C147.266 289.667 152.455 289.311 157.348 287.769C162.241 286.228 166.698 283.546 170.353 279.944C174.007 276.342 176.755 271.922 178.37 267.05C179.985 262.177 180.42 256.99 179.641 251.916C178.861 246.843 176.888 242.026 173.885 237.864C170.883 233.702 166.935 230.314 162.368 227.977C157.8 225.64 152.744 224.422 147.614 224.423V224.423ZM147.614 287.869C141.024 287.876 134.605 285.769 129.3 281.856C128.722 281.433 128.166 280.996 127.623 280.531C123.173 276.773 119.87 271.837 118.095 266.287C116.32 260.738 116.143 254.799 117.586 249.154C119.029 243.509 122.033 238.385 126.252 234.369C130.472 230.354 135.737 227.611 141.444 226.453C142.232 226.291 143.021 226.164 143.825 226.066C145.082 225.91 146.347 225.832 147.614 225.833V287.869Cnan nan nan nan 147.614 287.869Z" fill="#2F2E41"/>
<path d="M132.067 250.507H163.162C164.301 250.507 165.224 249.582 165.224 248.442V248.341C165.224 247.201 164.301 246.277 163.162 246.277H132.067C130.927 246.277 130.004 247.201 130.004 248.341V248.442C130.004 249.582 130.927 250.507 132.067 250.507Z" fill="#6C63FF"/>
<path d="M132.067 258.966H163.162C164.301 258.966 165.224 258.042 165.224 256.902V256.8C165.224 255.66 164.301 254.736 163.162 254.736H132.067C130.927 254.736 130.004 255.66 130.004 256.8V256.902C130.004 258.042 130.927 258.966 132.067 258.966Z" fill="#6C63FF"/>
<path d="M132.067 267.426H163.162C164.301 267.426 165.224 266.501 165.224 265.361V265.26C165.224 264.12 164.301 263.196 163.162 263.196H132.067C130.927 263.196 130.004 264.12 130.004 265.26V265.361C130.004 266.501 130.927 267.426 132.067 267.426Z" fill="#6C63FF"/>
<path d="M502.249 397.592L493.194 397.591L488.886 362.636L502.25 362.637L502.249 397.592Z" fill="#9E616A"/>
<path d="M459.409 397.592L450.354 397.591L446.046 362.636L459.411 362.637L459.409 397.592Z" fill="#9E616A"/>
<path d="M459.728 407.045L431.882 407.044V406.692C431.882 403.815 433.024 401.056 435.057 399.022C437.089 396.988 439.846 395.845 442.72 395.845H442.721L447.808 391.983L457.298 395.846L459.728 395.846L459.728 407.045Z" fill="#2F2E41"/>
<path d="M503.729 407.045L475.884 407.044V406.692C475.884 403.815 477.026 401.056 479.058 399.022C481.091 396.988 483.848 395.845 486.722 395.845H486.723L491.809 391.983L501.299 395.846L503.73 395.846L503.729 407.045Z" fill="#2F2E41"/>
<path d="M450.527 190.718L436.765 274.581L440.51 287.078L435.595 295.929L442.813 373.659L439.883 380.114L448.068 385.166H464.724L465.608 314.796L469.722 304.465V298.771L478.098 255.861L479.64 315.953L482.076 326.301L480.03 333.669L482.704 338.831L489.807 386.7H508.484L507.039 375.563C508.666 374.739 509.973 373.397 510.755 371.748C511.536 370.099 511.748 368.237 511.357 366.455L510.286 361.574L512.723 347.141L517.161 266.621L515.91 201.653L494.062 184.932L450.527 190.718Z" fill="#2F2E41"/>
<path d="M482.076 83.0267C491.66 83.0267 499.429 75.2518 499.429 65.661C499.429 56.0701 491.66 48.2952 482.076 48.2952C472.493 48.2952 464.724 56.0701 464.724 65.661C464.724 75.2518 472.493 83.0267 482.076 83.0267Z" fill="#9E616A"/>
<path d="M444.164 223.997C444.919 223.216 445.494 222.279 445.848 221.252C446.202 220.225 446.327 219.132 446.213 218.051C446.1 216.971 445.751 215.928 445.192 214.997C444.632 214.065 443.875 213.268 442.974 212.661L449.722 187.124L436.722 191.5L432.307 215.08C431.389 216.662 431.082 218.526 431.446 220.319C431.809 222.112 432.817 223.71 434.278 224.809C435.739 225.908 437.553 226.432 439.375 226.283C441.197 226.133 442.901 225.32 444.164 223.997H444.164Z" fill="#9E616A"/>
<path d="M451.265 101.388L448.474 100.809L446.095 102.128C446.095 102.128 439.447 110.998 439.447 119.129C439.447 127.26 431.322 205.615 431.322 205.615L446.095 212.267L457.912 150.914L451.265 101.388Z" fill="#CFCFDE"/>
<path d="M497.272 52.9287C497.272 52.9287 501.811 44.2458 491.826 43.4564C491.826 43.4564 483.314 35.7289 474.638 42.0437C474.638 42.0437 469.905 42.0437 467.318 47.4032C467.318 47.4032 463.596 45.9905 462.778 49.7713C462.778 49.7713 460.054 57.6648 462.778 64.769C465.501 71.8732 466.406 72.6625 466.406 72.6625C466.406 72.6625 461.93 57.7682 472.824 56.9789C483.717 56.1895 495.907 49.3766 496.815 58.0595C497.723 66.7424 499.089 68.8818 499.089 68.8818C499.089 68.8818 507.711 56.4808 497.272 52.9287Z" fill="#2F2E41"/>
<path d="M560.659 295.929C559.349 295.931 558.085 295.448 557.109 294.574L504.596 247.792C503.538 246.847 502.897 245.52 502.815 244.103C502.733 242.687 503.215 241.295 504.157 240.234L537.798 202.413C538.742 201.353 540.067 200.712 541.483 200.63C542.899 200.548 544.29 201.031 545.35 201.973L597.864 248.756C598.923 249.7 599.565 251.026 599.647 252.444C599.729 253.861 599.246 255.253 598.303 256.313L564.662 294.134C564.196 294.661 563.63 295.09 562.998 295.396C562.365 295.703 561.678 295.881 560.976 295.92C560.87 295.926 560.764 295.929 560.659 295.929Z" fill="white"/>
<path d="M560.658 296.273C559.265 296.275 557.919 295.761 556.881 294.831L504.367 248.049C503.241 247.043 502.559 245.632 502.472 244.123C502.384 242.615 502.898 241.134 503.9 240.005L537.541 202.184C538.546 201.057 539.956 200.375 541.463 200.287C542.97 200.199 544.45 200.713 545.579 201.716L598.092 248.499C599.22 249.503 599.903 250.915 599.99 252.424C600.078 253.932 599.563 255.414 598.559 256.542L564.918 294.363C564.423 294.924 563.821 295.38 563.148 295.706C562.474 296.033 561.743 296.222 560.996 296.264C560.883 296.27 560.771 296.273 560.658 296.273ZM541.796 201.652C541.186 201.651 540.583 201.779 540.027 202.029C539.47 202.278 538.973 202.643 538.568 203.099L504.927 240.92C504.167 241.776 503.777 242.9 503.844 244.044C503.91 245.187 504.427 246.258 505.282 247.021L557.795 293.803C558.219 294.18 558.712 294.471 559.248 294.657C559.784 294.843 560.351 294.922 560.917 294.889C561.483 294.856 562.037 294.712 562.547 294.465C563.058 294.218 563.514 293.872 563.891 293.448L597.532 255.627C598.294 254.771 598.684 253.648 598.618 252.503C598.551 251.359 598.033 250.289 597.178 249.527L544.664 202.744C543.875 202.039 542.853 201.651 541.795 201.652H541.796Z" fill="#2F2E41"/>
<path d="M579.702 260.11C579.135 260.111 578.587 259.903 578.164 259.525L536.943 222.802C536.715 222.6 536.528 222.355 536.395 222.081C536.262 221.807 536.184 221.51 536.166 221.205C536.147 220.901 536.189 220.596 536.289 220.308C536.389 220.02 536.545 219.755 536.747 219.527C536.95 219.299 537.195 219.114 537.469 218.981C537.744 218.849 538.042 218.772 538.346 218.754C538.65 218.737 538.954 218.78 539.242 218.881C539.529 218.982 539.794 219.139 540.021 219.342L581.242 256.064C581.593 256.377 581.84 256.788 581.952 257.245C582.063 257.701 582.033 258.18 581.866 258.619C581.699 259.058 581.403 259.436 581.016 259.702C580.629 259.968 580.171 260.111 579.702 260.11Z" fill="#6C63FF"/>
<path d="M571.839 268.95C571.272 268.95 570.724 268.742 570.301 268.364L529.08 231.642C528.853 231.44 528.668 231.195 528.536 230.921C528.403 230.647 528.326 230.35 528.309 230.046C528.291 229.742 528.333 229.438 528.433 229.151C528.533 228.864 528.688 228.599 528.89 228.372C529.093 228.145 529.337 227.959 529.611 227.827C529.885 227.694 530.182 227.617 530.485 227.6C530.788 227.582 531.092 227.624 531.379 227.724C531.667 227.824 531.931 227.98 532.158 228.182L573.38 264.905C573.73 265.217 573.978 265.628 574.089 266.084C574.201 266.541 574.171 267.02 574.004 267.459C573.836 267.898 573.54 268.275 573.153 268.542C572.767 268.808 572.308 268.95 571.839 268.95H571.839Z" fill="#6C63FF"/>
<path d="M563.977 277.79C563.409 277.791 562.861 277.583 562.438 277.204L521.217 240.483C520.989 240.28 520.804 240.035 520.671 239.761C520.539 239.487 520.461 239.19 520.443 238.886C520.426 238.582 520.468 238.278 520.568 237.99C520.667 237.703 520.823 237.438 521.025 237.21C521.228 236.983 521.473 236.798 521.746 236.665C522.02 236.533 522.318 236.455 522.621 236.438C522.925 236.42 523.229 236.463 523.516 236.563C523.804 236.664 524.068 236.819 524.295 237.022L565.516 273.745C565.867 274.057 566.115 274.468 566.226 274.925C566.338 275.381 566.308 275.86 566.141 276.299C565.974 276.738 565.677 277.116 565.291 277.382C564.904 277.648 564.446 277.791 563.976 277.79H563.977Z" fill="#6C63FF"/>
<path d="M516.837 225.504C516.308 224.555 515.993 223.502 515.915 222.418C515.837 221.334 515.997 220.246 516.384 219.231C516.772 218.216 517.377 217.298 518.157 216.542C518.937 215.786 519.874 215.211 520.9 214.857L520.945 188.442L532.382 196.018L530.586 219.94C531.067 221.705 530.884 223.586 530.072 225.225C529.26 226.864 527.876 228.148 526.181 228.834C524.486 229.52 522.599 229.56 520.876 228.946C519.154 228.332 517.717 227.108 516.837 225.504H516.837Z" fill="#9E616A"/>
<path d="M517.894 108.627L523.003 103.698L526.757 106.409C526.757 106.409 530.45 110.845 533.405 124.15C536.359 137.455 533.405 210.636 533.405 210.636L517.155 208.418L519.371 169.98L512.723 137.455L517.894 108.627Z" fill="#CFCFDE"/>
<path d="M525.439 104.9L508.224 96.6706L496.536 85.8212L475.223 85.6616L468.347 94.6064L450.197 100.777L453.222 163.412L451.159 168.229C451.159 168.229 452.596 169.528 453.253 170.254C453.909 170.981 452.346 177.064 452.346 177.064L451.464 183.682L453.909 185.43L450.73 189.188L449.941 195.113C449.941 195.113 505.435 181.309 515.92 204.176C516.474 205.384 515.11 193.576 515.11 193.576L513.746 184.932L515.099 177.174L517.162 175.109L513.702 171.647L515.92 155.221L525.439 104.9Z" fill="#2F2E41"/>
<path d="M135.036 243.758C135.463 242.673 135.648 241.506 135.576 240.342C135.504 239.177 135.178 238.043 134.62 237.018C134.063 235.993 133.288 235.103 132.35 234.41C131.411 233.718 130.333 233.24 129.19 233.009L125.366 204.906L114.278 214.606L119.609 239.806C119.35 241.754 119.813 243.728 120.912 245.356C122.01 246.984 123.667 248.153 125.569 248.64C127.47 249.127 129.484 248.899 131.229 247.999C132.974 247.1 134.329 245.591 135.036 243.758V243.758Z" fill="#FFB6B6"/>
<path d="M91.5949 119.262L88.5895 119.839L86.7729 122.127C86.7729 122.127 83.834 133.664 87.1819 141.726C90.5297 149.788 114.735 230.827 114.735 230.827L132.121 231.332L118.578 165.626L91.5949 119.262Z" fill="#2F2E41"/>
<path d="M160.135 239.636C159.335 238.788 158.729 237.774 158.362 236.667C157.995 235.56 157.875 234.385 158.01 233.226C158.145 232.067 158.533 230.952 159.146 229.96C159.758 228.967 160.581 228.121 161.556 227.48L154.634 199.977L168.536 204.84L172.978 230.212C173.944 231.922 174.249 233.928 173.837 235.848C173.424 237.769 172.322 239.471 170.739 240.633C169.156 241.794 167.202 242.334 165.248 242.15C163.294 241.967 161.475 241.072 160.135 239.636Z" fill="#FFB6B6"/>
<path d="M154.061 107.907L157.065 107.321L159.603 108.767C159.603 108.767 166.628 118.374 166.525 127.104C166.422 135.834 174.155 220.062 174.155 220.062L158.211 227.018L146.298 160.997L154.061 107.907Z" fill="#2F2E41"/>
</g>
<defs>
<clipPath id="clip0_326_658">
<rect width="600" height="406.08" fill="white" transform="translate(0 0.965332)"/>
</clipPath>
</defs>
</svg>
