<svg width="600" height="498" viewBox="0 0 600 498" fill="none" xmlns="http://www.w3.org/2000/svg">
<g clip-path="url(#clip0_326_620)">
<path d="M33.1861 159.826C33.1861 180.52 38.1198 197.554 46.6783 212.146C49.503 216.952 52.7095 221.527 56.2673 225.826C87.7294 264.054 146.223 284.977 199.09 318.868C355.145 418.907 372.049 258.605 365.001 159.826C362.158 119.969 346.533 83.4591 321.711 55.5047C316.498 49.6254 310.866 44.1255 304.86 39.0474C276.679 15.2058 240.272 0.778442 199.09 0.778442C128.437 0.778442 68.1012 43.1132 44.1789 102.77C36.9059 120.924 33.1754 140.287 33.1861 159.826Z" fill="#9E99FF"/>
<path d="M163.743 36.6232L321.711 55.5046C316.498 49.6254 310.866 44.1254 304.86 39.0473L163.743 36.6232Z" fill="#CFCFDE"/>
<path d="M46.6784 212.146C49.5031 216.952 52.7096 221.527 56.2674 225.826L191.58 209.657L46.6784 212.146Z" fill="#CFCFDE"/>
<path d="M38.6589 119.174L267.985 89.6255L44.179 102.77C42.0295 108.131 40.1866 113.607 38.6589 119.174Z" fill="#CFCFDE"/>
<path d="M349.445 43.1439C349.445 43.5499 349.457 43.95 349.492 44.3442C349.672 46.7876 350.397 49.1606 351.616 51.2902C352.836 53.4198 354.518 55.2524 356.54 56.6545C358.562 58.0567 360.874 58.9931 363.307 59.3955C365.739 59.7979 368.232 59.6562 370.602 58.9808C372.973 58.3053 375.162 57.1131 377.01 55.4909C378.858 53.8687 380.319 51.8574 381.285 49.6036C382.252 47.3497 382.701 44.91 382.598 42.4622C382.496 40.0143 381.845 37.62 380.694 35.4536C380.337 34.7747 379.929 34.1236 379.473 33.506C377.49 30.7734 374.711 28.7107 371.511 27.5962C368.311 26.4818 364.844 26.3691 361.577 27.2733C358.31 28.1776 355.401 30.0554 353.243 32.6534C351.084 35.2514 349.779 38.4446 349.504 41.8023C349.463 42.2436 349.445 42.6908 349.445 43.1439Z" fill="#9E99FF"/>
<path d="M349.445 43.1438C349.445 43.5498 349.457 43.9499 349.492 44.3442L374.321 41.3787L349.504 41.8023C349.463 42.2436 349.445 42.6908 349.445 43.1438Z" fill="#CFCFDE"/>
<path d="M355.367 51.446L378.336 54.1938C378.988 53.4718 379.575 52.6941 380.089 51.8697L355.367 51.446Z" fill="#CFCFDE"/>
<path d="M361.883 33.2059L380.693 35.4536C380.337 34.7747 379.929 34.1236 379.473 33.506L361.883 33.2059Z" fill="#CFCFDE"/>
<path d="M122.166 339.767C122.358 340.125 122.557 340.473 122.774 340.805C124.086 342.88 125.847 344.638 127.929 345.951C130.01 347.265 132.361 348.1 134.809 348.397C137.257 348.694 139.741 348.444 142.079 347.667C144.418 346.889 146.553 345.603 148.328 343.903C150.103 342.202 151.474 340.13 152.341 337.836C153.208 335.543 153.549 333.086 153.34 330.645C153.13 328.204 152.375 325.84 151.13 323.725C149.884 321.611 148.18 319.799 146.14 318.421C145.505 317.988 144.837 317.603 144.143 317.269C141.102 315.779 137.674 315.251 134.321 315.757C130.968 316.263 127.853 317.778 125.394 320.098C122.935 322.418 121.252 325.432 120.571 328.732C119.89 332.032 120.244 335.46 121.585 338.554C121.757 338.963 121.952 339.367 122.166 339.767Z" fill="#9E99FF"/>
<path d="M122.166 339.767C122.358 340.125 122.557 340.473 122.775 340.805L143.307 326.623L121.586 338.554C121.757 338.963 121.953 339.367 122.166 339.767Z" fill="#CFCFDE"/>
<path d="M131.316 344.342L152.901 336.073C153.136 335.131 153.287 334.171 153.353 333.203L131.316 344.342Z" fill="#CFCFDE"/>
<path d="M128.464 325.196L146.14 318.421C145.505 317.988 144.837 317.603 144.143 317.269L128.464 325.196Z" fill="#CFCFDE"/>
<path d="M4.70926 55.7651C4.42393 56.0557 4.15125 56.3504 3.89965 56.6573C2.31075 58.5309 1.16251 60.7331 0.538631 63.1034C-0.0852432 65.4736 -0.169067 67.9523 0.293247 70.3588C0.755558 72.7653 1.75242 75.0391 3.21113 77.0145C4.66985 78.9899 6.55371 80.6172 8.72553 81.7779C10.8974 82.9386 13.3024 83.6034 15.7656 83.7239C18.2288 83.8445 20.688 83.4177 22.9641 82.4747C25.2402 81.5317 27.2761 80.0962 28.9231 78.2727C30.5702 76.4493 31.7871 74.2839 32.4853 71.9342C32.7072 71.2008 32.8728 70.4518 32.9806 69.6936C33.4814 66.3617 32.9414 62.9574 31.4337 59.9399C29.926 56.9223 27.523 54.4367 24.5488 52.8183C21.5747 51.1999 18.1725 50.5266 14.8011 50.8891C11.4296 51.2516 8.25125 52.6326 5.69457 54.8457C5.35474 55.1329 5.02769 55.4407 4.70926 55.7651Z" fill="#9E99FF"/>
<path d="M4.70921 55.765C4.42388 56.0557 4.1512 56.3504 3.8996 56.6572L23.7585 71.7556L5.69452 54.8457C5.35467 55.1329 5.02764 55.4407 4.70921 55.765Z" fill="#CFCFDE"/>
<path d="M3.11456 65.8168L17.6268 83.7153C18.601 83.6506 19.5675 83.5007 20.5153 83.2674L3.11456 65.8168Z" fill="#CFCFDE"/>
<path d="M20.5981 57.2776L32.4853 71.9342C32.7071 71.2008 32.8727 70.4518 32.9806 69.6936L20.5981 57.2776Z" fill="#CFCFDE"/>
<path d="M315.834 359.375C315.834 359.375 279.441 360.882 279.441 369.92C279.441 378.959 320.383 369.92 320.383 369.92L315.834 359.375Z" fill="#9E616A"/>
<path d="M370.424 497.965L438.661 493.446L441.694 457.292L456.858 488.927L523.579 479.888C522.062 422.645 497.8 366.907 496.284 359.375C494.767 351.843 491.143 320.72 491.143 320.72C484.517 306.756 449.792 305.445 422.572 306.711C411.29 307.223 401.282 308.187 395.111 308.88C391.032 309.332 388.621 309.663 388.621 309.663C377.748 320.796 370.742 335.965 366.436 352.912C350.908 413.968 370.424 497.965 370.424 497.965Z" fill="#2F2E41"/>
<path d="M446.243 148.477C425.306 148.477 408.334 131.616 408.334 110.816C408.334 90.017 425.306 73.1559 446.243 73.1559C467.18 73.1559 484.153 90.017 484.153 110.816C484.153 131.616 467.18 148.477 446.243 148.477Z" fill="#9E616A"/>
<path d="M472.022 119.855C472.022 119.855 482.636 166.554 499.317 180.112C515.997 193.669 434.112 180.112 434.112 180.112C434.112 180.112 452.309 149.983 438.661 136.425C425.014 122.868 472.022 119.855 472.022 119.855Z" fill="#9E616A"/>
<path d="M394.686 312.676L419.843 315.448L490.218 323.221C490.218 323.221 490.552 322.332 491.143 320.72C496.253 306.876 520.864 239.51 523.579 219.278C526.611 196.682 494.767 169.567 494.767 169.567C494.767 169.567 464.44 163.541 455.342 163.541C446.243 163.541 409.85 177.099 409.85 177.099L396.279 298.38L395.111 308.88L394.686 312.676Z" fill="#CFCFDE"/>
<path opacity="0.15" d="M366.436 352.912L417.432 323.221C417.432 323.221 418.327 320.329 419.843 315.448C420.601 313.008 421.526 310.055 422.572 306.711C428.456 287.941 438.328 256.969 446.243 234.342C458.374 199.695 399.235 296.106 399.235 296.106L396.278 298.38L395.111 308.88C391.032 309.332 388.621 309.663 388.621 309.663C377.748 320.796 370.742 335.965 366.436 352.912Z" fill="#2F2E41"/>
<path d="M434.112 180.111C434.112 180.111 449.276 199.695 437.145 234.342C425.014 268.99 408.334 323.221 408.334 323.221L320.383 374.439L308.252 359.375L390.137 296.106C390.137 296.106 393.17 181.618 408.334 177.099C423.497 172.579 434.112 180.111 434.112 180.111Z" fill="#CFCFDE"/>
<path d="M509.173 311.923C509.173 311.923 487.944 355.609 478.845 351.09C469.747 346.571 501.591 301.378 501.591 301.378L509.173 311.923Z" fill="#9E616A"/>
<path d="M511.448 192.163L591.816 258.445C591.816 258.445 622.143 279.535 566.037 294.599C509.931 309.663 505.382 318.702 505.382 318.702C505.382 318.702 499.317 299.118 491.735 302.131L556.939 270.497L503.866 238.862L511.448 192.163Z" fill="#CFCFDE"/>
<path d="M543.748 141.727C539.53 139.652 530.216 135.463 522.282 130.418C522.838 114.003 520.804 99.1021 514.848 91.2035C511.504 83.6624 504.484 76.1124 498.985 70.1666C485.483 55.5655 455.625 47.4153 450.329 54.7105C410.276 55.4961 406.059 86.6855 406.059 86.6855C406.267 99.7312 419.916 100.144 431.872 99.6686C430.801 108.575 433.654 117.829 441.917 121.933C457.716 129.781 462.456 139.983 454.556 147.046C446.657 154.11 432.437 172.945 451.396 177.653C470.356 182.362 472.726 191.78 467.196 195.704C461.666 199.628 479.836 188.641 479.836 188.641C479.836 188.641 482.996 207.476 499.586 202.767C501.072 202.345 502.558 201.264 504.019 199.646C508.5 204.537 512.497 207.429 515.509 207.445C532.763 207.536 530.694 188.552 530.694 188.552C530.694 188.552 551.173 194.265 544.782 191.968C538.392 189.67 538.119 179.967 555.098 170.354C572.078 160.741 553.273 146.412 543.748 141.727Z" fill="#2F2E41"/>
<path d="M332.061 190.935L332.336 190.899L331.665 193.433C331.031 196.968 330.11 200.446 328.911 203.834L309.231 278.152C308.603 280.524 307.292 282.662 305.458 284.304C303.624 285.946 301.347 287.021 298.907 287.396L258.774 293.564C256.179 293.963 253.524 293.551 251.174 292.386C248.825 291.221 246.897 289.361 245.658 287.061L207.518 216.291C206.327 214.331 205.238 212.31 204.256 210.238L202.961 207.835L203.163 207.809C199.12 198.307 197.34 188.007 197.963 177.71C198.585 167.414 201.593 157.399 206.752 148.447C211.91 139.494 219.08 131.847 227.703 126.1C236.325 120.352 246.168 116.661 256.462 115.314C266.756 113.966 277.225 114.998 287.052 118.33C296.879 121.662 305.798 127.204 313.115 134.523C320.432 141.842 325.949 150.741 329.235 160.526C332.521 170.311 333.488 180.718 332.061 190.935H332.061Z" fill="#2F2E41"/>
<path d="M256.312 298.419C257.018 298.419 257.724 298.365 258.423 298.258L300.373 291.81C303.037 291.401 305.523 290.228 307.526 288.435C309.529 286.642 310.961 284.307 311.646 281.716L332.217 204.033C333.474 200.477 334.44 196.826 335.106 193.115L335.626 189.717C337.026 178.86 335.866 167.828 332.238 157.493C328.61 147.157 322.614 137.801 314.722 130.163C306.83 122.524 297.26 116.813 286.765 113.479C276.27 110.145 265.139 109.28 254.251 110.953L254.432 112.116C265.202 110.467 276.211 111.341 286.581 114.67C296.95 117.998 306.394 123.687 314.157 131.284C321.92 138.881 327.789 148.175 331.295 158.425C334.801 168.675 335.847 179.597 334.35 190.32L333.95 192.862C333.289 196.542 332.331 200.162 331.085 203.689L310.501 281.417C309.874 283.786 308.564 285.921 306.733 287.561C304.902 289.201 302.628 290.273 300.192 290.647L258.242 297.095C255.651 297.49 253 297.078 250.654 295.916C248.309 294.753 246.383 292.896 245.144 290.601L244.099 291.156C245.284 293.35 247.046 295.184 249.196 296.463C251.347 297.741 253.805 298.418 256.312 298.419Z" fill="#CFCFDE"/>
<path d="M245.67 207.827L271.195 277.064L269.757 277.587L244.232 208.351L245.67 207.827Z" fill="#CFCFDE"/>
<path d="M287.347 201.421L288.878 201.488L285.62 275.151L284.089 275.084L287.347 201.421Z" fill="#CFCFDE"/>
<path d="M259.858 333.637L313.612 325.376C314.012 325.312 314.37 325.094 314.608 324.769C314.846 324.444 314.945 324.038 314.883 323.641C314.821 323.243 314.604 322.886 314.278 322.648C313.952 322.409 313.544 322.308 313.144 322.368L259.39 330.629C259.19 330.658 258.998 330.727 258.825 330.83C258.652 330.934 258.501 331.07 258.381 331.232C258.261 331.393 258.175 331.577 258.127 331.772C258.079 331.967 258.07 332.169 258.101 332.367C258.132 332.565 258.202 332.756 258.307 332.927C258.412 333.098 258.55 333.247 258.713 333.365C258.877 333.483 259.062 333.568 259.258 333.615C259.455 333.662 259.659 333.669 259.858 333.637Z" fill="#2F2E41"/>
<path d="M258.48 322.297L312.234 314.036C312.433 314.007 312.625 313.938 312.798 313.835C312.971 313.731 313.122 313.595 313.242 313.433C313.362 313.272 313.448 313.088 313.496 312.893C313.544 312.699 313.553 312.496 313.522 312.298C313.492 312.1 313.421 311.909 313.316 311.738C313.211 311.567 313.073 311.418 312.91 311.3C312.746 311.182 312.561 311.097 312.365 311.05C312.168 311.003 311.965 310.996 311.765 311.028L258.011 319.289C257.811 319.318 257.619 319.387 257.446 319.49C257.273 319.594 257.123 319.73 257.003 319.892C256.883 320.053 256.797 320.237 256.748 320.432C256.7 320.627 256.691 320.829 256.722 321.027C256.753 321.226 256.823 321.416 256.928 321.587C257.034 321.758 257.172 321.907 257.335 322.025C257.498 322.143 257.684 322.228 257.88 322.275C258.076 322.322 258.28 322.329 258.48 322.297Z" fill="#2F2E41"/>
<path d="M257.101 310.957L310.855 302.696C311.255 302.632 311.613 302.414 311.851 302.089C312.089 301.764 312.188 301.358 312.127 300.961C312.065 300.563 311.847 300.206 311.521 299.968C311.195 299.729 310.787 299.629 310.387 299.688L256.633 307.949C256.233 308.013 255.875 308.231 255.637 308.556C255.399 308.882 255.3 309.287 255.362 309.685C255.424 310.082 255.641 310.439 255.967 310.677C256.293 310.916 256.701 311.017 257.101 310.957H257.101Z" fill="#2F2E41"/>
<path d="M288.406 340.236C277.743 341.875 268.18 337.3 267.046 330.018L305.658 324.083C306.793 331.366 299.068 338.598 288.406 340.236Z" fill="#2F2E41"/>
<path d="M269.084 193.241C271.377 192.889 273.275 191.088 274.315 189.88C274.656 189.485 274.988 189.074 275.321 188.663C276.533 187.165 277.677 185.75 279.27 185.012C282.786 183.382 286.929 185.659 290.516 188.101L291.383 186.846C287.439 184.16 282.84 181.678 278.622 183.632C276.706 184.52 275.394 186.141 274.127 187.709C273.804 188.109 273.482 188.507 273.151 188.891C272.07 190.145 269.912 192.179 267.601 191.71C266.626 191.428 265.721 190.951 264.938 190.31C264.342 189.868 263.712 189.473 263.054 189.129C261.719 188.493 260.225 188.263 258.759 188.469C257.294 188.675 255.922 189.307 254.817 190.285C254.423 190.656 254.05 191.048 253.699 191.459C253.01 192.24 252.359 192.976 251.512 193.244C250.26 193.642 248.936 192.931 247.534 192.18C246.088 191.404 244.593 190.602 242.896 190.8C242.841 190.807 242.786 190.814 242.731 190.823C239.713 191.286 238.322 194.602 237.534 197.077L238.996 197.535C240.065 194.171 241.368 192.499 243.076 192.312C244.291 192.17 245.513 192.825 246.806 193.519C248.428 194.389 250.106 195.288 251.977 194.695C253.23 194.299 254.054 193.366 254.851 192.463C255.165 192.094 255.499 191.742 255.851 191.408C256.731 190.643 257.817 190.148 258.975 189.986C260.133 189.823 261.314 189.999 262.374 190.492C262.96 190.802 263.522 191.157 264.054 191.552C265.004 192.323 266.108 192.884 267.293 193.201C267.883 193.321 268.489 193.334 269.084 193.241Z" fill="#CFCFDE"/>
</g>
<defs>
<clipPath id="clip0_326_620">
<rect width="600" height="497.187" fill="white" transform="matrix(-1 0 0 1 600 0.778442)"/>
</clipPath>
</defs>
</svg>
